<svg viewBox="0 90 200 130" xml:space="preserve" xmlns="http://www.w3.org/2000/svg">
  <g style="display:inline">
    <ellipse style="display:inline;fill:#309ba1;fill-opacity:1;stroke-width:.32111" cx="100.557" cy="153.797" rx="89.255" ry="63.477"/>
    <ellipse style="fill:#fc0;stroke-width:.275715" cx="93.077" cy="125.255" rx="21.612" ry="21.324"/>
    <path style="fill:#504416;fill-opacity:1;stroke-width:.264583" d="m28.048 163.484 16.905-23.053 5.38 3.843 12.87-21.709 17.098 18.059 12.872-14.217 4.802 5.187 16.33-26.895 11.91 30.738 5.187-5.187 3.266 7.3 3.842 3.266 11.719-18.635 8.453 21.516 3.458-3.266 11.526 23.438z"/>
    <path style="fill:#fff;fill-opacity:1;stroke-width:.264583" d="m44.953 145.81-.768 10.95 11.91-10.181-4.226 11.91-9.605 5.188h-8.645zm18.827 4.611V128.33l17.29 18.826 5.763-5.187 25.358 18.635-18.058-7.3 4.227 5.57-18.059-5.762-4.802 5.763-7.877-16.714zm23.437-10.951 5.571-6.53 5.187 6.915L113.728 112l.385 32.467-3.843-11.527-5.57 18.827zm34.964.77 4.227 17.097 6.915 4.995s6.532-2.882 6.34-3.842-8.453-20.364-8.453-20.364l1.345 15.753z"/>
    <path style="display:inline;fill:#fff;fill-opacity:1;stroke-width:.264583" d="m149.845 127.176.384 23.821-3.266-9.797-3.842 12.103-4.226-6.724z"/>
    <path style="fill:#668000;fill-opacity:1;stroke-width:.264583" d="M27.472 170.016H7.108l11.91 12.68-11.526 12.679h25.935l-10.374-7.3Z"/>
    <path style="display:inline;fill:#450;fill-opacity:1;stroke-width:.264583" d="m22.479 188.65 10.986 6.752c-4.183-4.92-2.16-8.174-1.504-11.625z"/>
    <path style="display:inline;fill:#668000;fill-opacity:1;stroke-width:.264583" d="M192.351 169.802h-16.436l.271 16.436-9.101 9.374h25.266l-11.682-12.905Z"/>
    <path style="display:inline;fill:#450;fill-opacity:1;stroke-width:.264583" d="m177.535 188.657-10.482 6.98s3.463-4.444 2.716-7.364z"/>
    <path style="fill:#7c884c;fill-opacity:1;stroke-width:.264583" d="m41.116 143.123-3.137 7.203 1.684-.468-6.374 13.866 12.454-.209-2.338-4.957 2.058.678-2.526-5.262 1.777.187-2.432-4.397 1.602.573z"/>
    <path style="fill:#788248;fill-opacity:1;stroke-width:.264583" d="m64.452 149.764-2.151 4.584 1.403.094-1.59 2.712h.935l-1.59 3.555 1.029-.187-.936 2.806h5.893l-1.216-2.9 1.03.468-1.31-3.648h.842l-1.404-2.806 1.123.187z"/>
    <path style="fill:#7e8a4d;fill-opacity:1;stroke-width:.264583" d="m52.54 151.02-2.026 4.544.908-.292-1.352 2.62 1.052-.188-1.73 3.566h.841l-.561 1.965h5.145l-.468-2.152h.655l-1.31-3.18h.749l-1.002-2.686.941.232z"/>
    <path style="fill:#7d8a4d;fill-opacity:1;stroke-width:.264583" d="m134.474 163.645 1.257-3.175-1.14.099 1.388-3.456-1.174.05 1.19-2.696-.793.248 1.786-4.696 2.05 4.431-.71.05 1.041 2.596h-1.124l1.488 3.225-1.091-.182 1.323 3.241z"/>
    <path style="fill:#727c46;fill-opacity:1;stroke-width:.264583" d="m149.754 148.034-1.918 4.829 1.19.198-1.124 2.382.463.066-.992 3.307.86-.198-1.786 4.762 7.607-.132-2.183-3.837.794-.264-1.257-3.506h.595l-1.124-2.646h1.058z"/>
    <path style="display:inline;fill:#96a45c;fill-opacity:1;stroke-width:.264583" d="m144.066 142.081-2.779 7.409h1.39l-2.051 4.233 1.521-.066-2.38 5.16h1.719l-2.05 4.563 9.458.066-1.984-4.365 1.852-.199-2.381-4.96 1.521-.133-2.183-4.167 1.72-.132z"/>
    <path style="fill:#6f7943;fill-opacity:1;stroke-width:.264583" d="m158.022 143.47-2.844 6.88 1.19-.133-1.917 4.101 1.52.066-2.38 4.895 1.918-.33-1.786 4.034 8.863.066-2.182-3.902 1.786-.133-2.382-4.564 1.522-.066-1.654-3.902 1.125.066z"/>
    <path style="display:inline;fill:#96a45c;fill-opacity:1;stroke-width:.264583" d="m172.773 163.71-2.58-6.217 2.183.133-3.043-6.747 2.117.264-2.646-5.556 1.654.132-3.77-9.326-3.77 9.525 1.851-.265-2.447 5.424 1.786-.265-3.175 6.615 2.58-.066-2.845 6.218zM57.156 142.187l-3.087 7.484h1.496l-1.683 4.21h1.403l-2.152 4.957 1.684-.093-2.339 4.958 9.823.28-2.526-5.145 1.684.187-2.058-4.957h1.31l-1.685-4.303h1.217zm-22.638-5.799-3.742 9.26 2.058.094-2.993 5.52 2.245-.469-2.994 7.016 2.152-.374-2.807 6.361 12.068-.374-2.9-6.268 2.058.375-2.62-6.642 2.152.187-2.526-5.52 1.871.282z"/>
    <path style="display:inline;fill:#8a0;fill-opacity:1;stroke-width:.264583" d="M22.477 162.716h155.032v25.935H22.477z"/>
    <path d="M241.145 658.876v9.333q0 10.833-5.25 17.042-5.208 6.166-14.292 6.166-10.166 0-15.708-7.625-5.542-7.666-5.542-21.833 0-14.292 5.5-21.667 5.542-7.416 16.167-7.416 11.917 0 17.25 12.708l-12.042 4.958q-1.5-2.666-2.791-3.875-1.292-1.25-3.542-1.25-3.833 0-5.458 4.042-1.584 4-1.584 13 0 8.375 1.792 12.333 1.833 3.917 5.792 3.917 6.333 0 6.541-9.042h-5.875v-10.791zm9.292-24.459h14.708q8.917 0 14.083 4.584t5.167 12.458q0 4.042-1.958 7.833-1.959 3.75-5.709 5.667l10.084 25.083h-13.334L263.27 664.71h-.208v25.333h-12.625zm12.625 10.75v13.209q8.375-.167 8.375-5.875 0-3.875-1.959-5.542-1.916-1.667-6.416-1.792m30.875-10.75h25.541v11.834h-12.916v10.25h11.208v11.541h-11.208v10.125h13v11.875h-25.625zm35.583 0h25.542v11.834h-12.917v10.25h11.208v11.541h-11.208v10.125h13v11.875H329.52zm35.583 0h12.75l16.042 32.084-.458-6v-26.084h12.624v55.625h-12.958l-15.708-31.583.333 6.917v24.666h-12.625zm48.75 0h30.125v12.709h-8.708v42.916h-12.792v-42.916h-8.625zm37.958 0h14.709q8.916 0 14.083 4.584t5.167 12.458q0 4.042-1.959 7.833-1.958 3.75-5.708 5.667l10.083 25.083h-13.333l-10.208-25.333h-.209v25.333h-12.625zm12.625 10.75v13.209q8.375-.167 8.375-5.875 0-3.875-1.958-5.542-1.917-1.667-6.417-1.792m31.334-10.75h12.625v55.625H495.77Zm24.958 0h15.625q8.25 0 13.25 4.709t5 12.416q0 8.125-5.083 12.75-5.042 4.584-14 4.584h-2.167v21.166h-12.625zm12.625 10.667v13.125q4.25-.083 6.25-1.625 2.042-1.542 2.042-4.875 0-3.583-1.959-5.042-1.958-1.5-6.333-1.583" style="font-size:85.3333px;line-height:1.2;font-family:&quot;Tw Cen MT Condensed Extra Bold&quot;;-inkscape-font-specification:&quot;Tw Cen MT Condensed Extra Bold, &quot;;text-align:center;direction:rtl;text-anchor:middle;white-space:pre;fill:#e5ffd5" transform="scale(.26458)" aria-label="GREENTRIP"/>
  </g>
</svg>
